<svg xmlns="http://www.w3.org/2000/svg" width="30" height="32" viewBox="0 0 30 32"><path d="M29.268 8.536q.714 1.018.321 2.304l-4.911 16.179q-.339 1.143-1.366 1.92t-2.188.777h-16.482q-1.375 0-2.652-.955t-1.777-2.348q-.429-1.196-.036-2.268l.054-.482.071-.661q.018-.143-.054-.384t-.054-.348q.036-.196.143-.375t.295-.42.295-.42q.411-.679.804-1.634t.536-1.634q.054-.179.009-.536t-.009-.5q.054-.196.304-.5t.304-.411q.375-.643.75-1.643t.446-1.607q.018-.161-.045-.571t.009-.5q.071-.232.393-.545t.393-.402q.339-.464.759-1.509t.491-1.723q.018-.143-.054-.455t-.036-.473q.036-.143.161-.321t.321-.411.304-.375q.143-.214.295-.545t.268-.625.286-.643.348-.571.473-.42.643-.205.848.098l-.018.054q.679-.161.911-.161h13.589q1.321 0 2.036 1t.321 2.321l-4.893 16.179q-.643 2.125-1.277 2.741t-2.295.616h-15.518q-.482 0-.679.268-.196.286-.018.768.429 1.25 2.571 1.25h16.482q.518 0 1-.277t.625-.741l5.357-17.625q.125-.393.089-1.018.679.268 1.054.768zm-19 .035q-.071.232.036.402t.357.17h10.857q.232 0 .455-.17t.295-.402l.375-1.143q.071-.232-.036-.402t-.357-.17h-10.857q-.232 0-.455.17t-.295.402zm-1.482 4.572q-.071.232.036.402t.357.17h10.857q.232 0 .455-.17t.295-.402l.375-1.143q.071-.232-.036-.402t-.357-.17h-10.857q-.232 0-.455.17t-.295.402z"/></svg>