<svg xmlns="http://www.w3.org/2000/svg" width="32" height="32" viewBox="0 0 32 32"><path d="M16.571 14.857q0-.25-.161-.411t-.411-.161q-1.179 0-2.018.839t-.839 2.018q0 .25.161.411t.411.161.411-.161.161-.411q0-.714.5-1.214t1.214-.5q.25 0 .411-.161t.161-.411zm4 2.322q0 1.893-1.339 3.232t-3.232 1.339-3.232-1.339-1.339-3.232 1.339-3.232 3.232-1.339 3.232 1.339 1.339 3.232zm-18.285 10.25h27.429v-2.286h-27.429v2.286zm20.571-10.25q0-2.839-2.009-4.848t-4.848-2.009-4.848 2.009-2.009 4.848 2.009 4.848 4.848 2.009 4.848-2.009 2.009-4.848zm-18.286-11.465h6.857v-2.286h-6.857v2.286zm-2.285 3.429h27.429v-4.571h-14.786l-1.143 2.286h-11.5v2.286zm29.714-4.572v22.857q0 .946-.67 1.616t-1.616.67h-27.429q-.946 0-1.616-.67t-.67-1.616v-22.857q0-.946.67-1.616t1.616-.67h27.429q.946 0 1.616.67t.67 1.616z"/></svg>