<svg xmlns="http://www.w3.org/2000/svg" width="34" height="32" viewBox="0 0 34 32"><path d="M11.018 24.982l-.893.893q-.179.179-.411.179t-.411-.179l-8.321-8.321q-.179-.179-.179-.411t.179-.411l8.321-8.321q.179-.179.411-.179t.411.179l.893.893q.179.179.179.411t-.179.411l-7.018 7.018 7.018 7.018q.179.179.179.411t-.179.411zm10.553-19.053l-6.661 23.054q-.071.232-.277.348t-.42.045l-1.107-.304q-.232-.071-.348-.277t-.045-.438l6.661-23.054q.071-.232.277-.348t.42-.045l1.107.304q.232.071.348.277t.045.438zm11.733 11.625l-8.321 8.321q-.179.179-.411.179t-.411-.179l-.893-.893q-.179-.179-.179-.411t.179-.411l7.018-7.018-7.018-7.018q-.179-.179-.179-.411t.179-.411l.893-.893q.179-.179.411-.179t.411.179l8.321 8.321q.179.179.179.411t-.179.411z"/></svg>