<svg xmlns="http://www.w3.org/2000/svg" width="27" height="32" viewBox="0 0 27 32"><path d="M13.714 2.286q3.732 0 6.884 1.839t4.991 4.991 1.839 6.884-1.839 6.884-4.991 4.991-6.884 1.839-6.884-1.839-4.991-4.991-1.839-6.884 1.839-6.884 4.991-4.991 6.884-1.839zm4.893 9.303q-.036.018-.17.17t-.241.17l.08-.089.089-.196.063-.125q.107-.125.393-.268.25-.107.929-.214.607-.143.911.196-.036-.036.17-.232t.259-.214q.054-.036.268-.08t.268-.134l.036-.393q-.214.018-.313-.125t-.116-.375l-.107.143q0-.125-.08-.143t-.205.018-.161.018q-.179-.054-.268-.134t-.143-.295-.071-.268q-.036-.089-.17-.188t-.17-.188l-.045-.098-.054-.116-.071-.098-.098-.045-.125.089-.134.179-.08.089-.107-.027-.08.018-.08.054-.089.063-.152.054-.152.036q.268-.089-.018-.196-.179-.071-.286-.054.161-.071.134-.214t-.152-.25h.089q-.018-.071-.152-.152t-.313-.152-.232-.107q-.143-.089-.607-.17t-.589-.009q-.089.107-.08.188t.071.25.063.223q.018.107-.098.232t-.116.214q0 .125.25.277t.179.384q-.054.143-.286.286t-.286.214q-.089.143-.027.33t.188.295l.027.071-.063.08-.098.071-.116.063-.054.036q-.196.089-.366-.107t-.241-.464q-.125-.446-.286-.536-.411-.143-.518.018-.089-.232-.732-.464-.446-.161-1.036-.071.107-.018 0-.268-.125-.268-.339-.214.054-.107.071-.313t.018-.241q.054-.232.214-.411l.125-.152.17-.241.009-.107q.625.071.893-.196.089-.089.205-.304t.188-.304q.161-.107.25-.098t.259.098.259.089q.25.018.277-.196t-.134-.357q.214.018.054-.304l-.143-.161q-.214-.071-.482.089-.143.071.036.143-.018-.018-.17.188t-.295.313-.286-.089q-.018-.018-.098-.241t-.17-.241q-.143 0-.286.268.054-.143-.196-.268t-.429-.143q.339-.214-.143-.482-.125-.071-.366-.089t-.348.071q-.089.125-.098.205t.089.143.188.098.205.071.152.054q.25.179.143.25l-.152.063-.205.08-.107.071q-.054.071 0 .25t-.036.25q-.089-.089-.161-.313t-.125-.295q.125.161-.446.107l-.179-.018q-.071 0-.286.036t-.366.018-.241-.143q-.071-.143 0-.357l.071-.036-.196-.17-.179-.152q-.821.268-1.679.732.107.018.214-.018l.232-.116.179-.098q.607-.25.75-.125l.089-.089q.25.286.357.446-.125-.071-.536-.018-.357.107-.393.214.125.214.089.321l-.205-.179-.259-.196-.268-.089q-.286 0-.393.018-2.607 1.429-4.196 3.964.125.125.214.143.071.018.089.161t.045.196.205-.054q.161.143.054.339.018-.018.786.482.339.304.375.375.054.196-.179.321-.018-.036-.161-.161t-.161-.071q-.054.089.009.33t.188.223q-.125 0-.17.286t-.045.634-.018.42l.036.018q-.054.214.098.616t.384.348q-.232.054.357.768l.143.161.214.134.268.179.179.188q.071.089.179.402t.25.42q-.036.107.17.357t.188.411l-.045.018-.045.018q.054.125.277.25t.277.232l.036.179.054.196.143.036q.036-.357-.429-1.107l-.304-.518q-.054-.089-.098-.277t-.08-.259l.107.027.152.063.134.071.036.054q-.054.125.036.313t.214.33.304.339.214.232q.107.107.25.348t0 .241q.161 0 .357.179t.304.357q.089.143.143.464t.089.429q.036.125.152.241t.223.17l.286.143.232.125.33.188.384.205q.179.071.286.071t.259-.045.241-.063q.268-.036.518.268t.375.375q.643.339.982.196-.036.018.009.134t.143.277.161.259.098.152q.089.107.321.268t.321.268q.107-.071.125-.161-.054.143.125.357t.321.179q.25-.054.25-.571-.554.268-.875-.321l-.045-.098-.071-.152-.045-.152v-.134l.089-.054q.161 0 .179-.063t-.036-.223-.071-.232q-.018-.143-.196-.357t-.214-.268q-.089.161-.286.143t-.286-.161l-.027.098-.027.116-.268-.018.045-.313.063-.402.098-.214.134-.259.071-.223-.08-.17-.313-.045q-.339.018-.464.357l-.054.188-.089.205-.161.125q-.125.054-.429.036t-.429-.089q-.232-.143-.402-.518t-.17-.661q0-.179.045-.473t.054-.446-.098-.438l.161-.17.179-.188.08-.027h.08l.071-.027.054-.107-.071-.054-.071-.054q.125.054.509-.027t.491.027q.268.196.393-.036 0-.018-.045-.17t-.009-.241q.089.482.518.161.054.054.277.089t.313.089l.125.098.098.08.089-.009.152-.116q.179.25.214.429.196.714.339.786.125.054.196.036t.08-.17 0-.25-.027-.223l-.018-.143v-.321l-.018-.143q-.268-.054-.33-.214t.027-.33.268-.33l.143-.063.277-.116.223-.143q.375-.339.268-.625.125 0 .196-.161l-.089-.054-.134-.089-.08-.036q.161-.089.036-.286.089-.054.134-.196t.134-.179q.161.214.375.036.125-.143.018-.286.089-.125.366-.188t.33-.17q.125.036.143-.036t.018-.214.054-.214q.071-.089.268-.161t.232-.089l.304-.196v-.071q.321.036.554-.196.179-.196-.107-.357.054-.107-.054-.17t-.268-.098l.205-.009.188-.027q.268-.179-.125-.286-.304-.089-.768.214zm-2.911 15.661q3.679-.643 6.268-3.375-.054-.054-.223-.08t-.223-.063q-.321-.125-.429-.143.018-.125-.045-.232t-.143-.161-.223-.143-.196-.125l-.125-.107-.125-.098-.134-.08-.152-.036-.179.018-.054.018-.098.045-.098.054-.071.054v.045q-.375-.304-.643-.393-.089-.018-.196-.098t-.188-.125-.179-.027-.205.125q-.089.089-.107.268t-.036.232q-.125-.089 0-.313t.036-.33q-.054-.107-.188-.08t-.214.08-.205.152-.161.116-.152.098-.152.134l-.107.214-.089.196q-.036-.071-.205-.116t-.17-.098q.036.179.071.625t.089.679q.125.554-.214.857-.482.446-.518.714-.071.393.214.464 0 .125-.143.366t-.125.384l.036.286z"/></svg>